<?xml version="1.0" encoding="utf-8"?>
<!-- Svg Vector Icons : http://www.sfont.cn -->
<!DOCTYPE svg PUBLIC "-//W3C//DTD SVG 1.1//EN" "http://www.w3.org/Graphics/SVG/1.1/DTD/svg11.dtd">
<svg version="1.1" xmlns="http://www.w3.org/2000/svg" xmlns:xlink="http://www.w3.org/1999/xlink" x="0px" y="0px" viewBox="0 0 1000 1000" enable-background="new 0 0 1000 1000" xml:space="preserve">
<metadata> Svg Vector Icons : http://www.sfont.cn </metadata>
<g><path d="M500,905.9c-172.1,0-490-129.7-490-314.5c0-184.8,317.9-314.5,490-314.5c172.1,0,490,129.7,490,314.5C990,776.2,672.1,905.9,500,905.9z M500,335.4c-162.6,0-431.5,119.6-431.5,256c0,136.3,268.9,256,431.5,256c162.5,0,431.5-119.6,431.5-256C931.5,455.1,662.6,335.4,500,335.4z"/><path d="M500,747.4c-84.7,0-153.6-68.9-153.6-153.6c0-84.7,68.9-153.6,153.6-153.6c84.7,0,153.6,68.9,153.6,153.6C653.6,678.6,584.7,747.4,500,747.4z M500,469.5c-68.6,0-124.3,55.8-124.3,124.3c0,68.6,55.8,124.3,124.3,124.3c68.5,0,124.3-55.8,124.3-124.3C624.3,525.3,568.5,469.5,500,469.5z"/><path d="M442.6,555.7c-3.5,0-7.1-1.3-9.9-3.9c-5.9-5.5-6.3-14.7-0.9-20.7c2.9-3.2,6.1-6.2,9.4-8.9c6.3-5.1,15.5-4.3,20.6,2c5.1,6.2,4.2,15.5-2,20.6c-2.3,1.9-4.5,4-6.5,6.1C450.4,554.1,446.5,555.7,442.6,555.7z"/><path d="M500,686.5c-51.1,0-92.7-41.6-92.7-92.6c0-8.1,6.6-14.6,14.6-14.6c8.1,0,14.6,6.5,14.6,14.6c0,35,28.4,63.4,63.4,63.4c8.1,0,14.6,6.5,14.6,14.6S508.1,686.5,500,686.5z"/><path d="M498.2,240.4c-16.2,0-29.3-13.1-29.3-29.3v-87.8c0-16.1,13.1-29.3,29.3-29.3c16.1,0,29.3,13.1,29.3,29.3v87.8C527.4,227.3,514.3,240.4,498.2,240.4z"/><path d="M329.6,250.3c-10.7,0-21-5.9-26.2-16.1l-27.1-53.8c-7.3-14.4-1.5-32,13-39.3c14.4-7.3,32-1.5,39.3,13l27.1,53.8c7.3,14.4,1.4,32-13,39.3C338.5,249.3,334.1,250.3,329.6,250.3z"/><path d="M159,318.1c-8,0-16-3.3-21.8-9.7l-38-42.3c-10.8-12-9.8-30.5,2.2-41.3c12-10.8,30.5-9.8,41.3,2.2l38,42.3c10.8,12,9.8,30.5-2.2,41.3C172.9,315.7,165.9,318.1,159,318.1z"/><path d="M654.8,250.3c-4.4,0-8.9-1-13.1-3.1c-14.4-7.3-20.2-24.8-13-39.3l27.1-53.8c7.2-14.4,24.8-20.3,39.3-13c14.4,7.3,20.3,24.8,13,39.3l-27.1,53.8C675.8,244.4,665.5,250.3,654.8,250.3z"/><path d="M825.4,318.1c-6.9,0-13.9-2.5-19.5-7.5c-12-10.8-13-29.3-2.2-41.3l38-42.3c10.8-12,29.3-13,41.3-2.2c12,10.8,13,29.3,2.2,41.3l-38,42.3C841.4,314.9,833.5,318.1,825.4,318.1z"/></g>
</svg>