<?xml version="1.0" encoding="utf-8"?>
<!-- Svg Vector Icons : http://www.sfont.cn -->
<!DOCTYPE svg PUBLIC "-//W3C//DTD SVG 1.1//EN" "http://www.w3.org/Graphics/SVG/1.1/DTD/svg11.dtd">
<svg version="1.1" xmlns="http://www.w3.org/2000/svg" xmlns:xlink="http://www.w3.org/1999/xlink" x="0px" y="0px" viewBox="0 0 1000 1000" enable-background="new 0 0 1000 1000" xml:space="preserve">
<metadata> Svg Vector Icons : http://www.sfont.cn </metadata>
<g><g transform="translate(0.000000,511.000000) scale(0.100000,-0.100000)"><path d="M6102.7,4450.1c-798.8-105.6-1468.8-603-1816.7-1347.7c-167.5-355.6-193.3-487-190.7-981.8c0-409.7,5.1-450.9,72.1-657.1C4309.2,1041,4492.2,744.7,4791.1,456c288.6-273.1,536-420,938-554c206.1-67,247.4-72.1,657.1-72.1c494.8-2.6,626.2,23.2,981.8,190.7C7875.5,255.1,8244,610.7,8481,1089.9c749.9,1507.4-275.7,3277.7-1953.2,3370.5C6393.8,4468.1,6203.1,4463,6102.7,4450.1z M6628.3,3942.5c123.7-56.7,234.5-242.2,234.5-389.1c0-265.4-203.6-471.6-461.3-471.6c-407.1,0-618.4,492.2-329.8,775.6C6234.1,4012,6419.6,4040.4,6628.3,3942.5z M5409.5,3244.2c219-134,298.9-386.5,190.7-608.1c-167.5-345.3-654.5-347.9-822-7.7c-116,239.6-43.8,471.5,190.7,615.8C5074.5,3311.2,5301.3,3308.6,5409.5,3244.2z M7852.3,3231.3c157.2-90.2,229.3-237.1,216.4-427.8c-36.1-487-670-592.7-873.5-141.7c-59.3,131.4-59.3,229.3,0,360.8C7311.2,3277.7,7612.7,3373,7852.3,3231.3z M6545.9,2360.3c79.9-38.7,139.1-177.8,121.1-275.7c-23.2-116-144.3-208.7-273.2-208.7c-221.6,0-335,257.7-188.1,435.5C6295.9,2417,6399,2432.5,6545.9,2360.3z M5360.6,1863c128.8-54.1,185.5-108.2,242.2-231.9c92.8-201,33.5-432.9-144.3-569.5c-123.7-92.8-342.7-113.4-474.1-43.8c-146.9,77.3-242.2,219-255.1,376.2C4700.9,1747,5038.4,1997,5360.6,1863z M7803.4,1852.7c185.5-85,270.6-221.6,270.6-430.3c0-335-365.9-551.4-667.4-396.8c-337.6,170.1-335,654.5,2.6,822C7545.7,1914.5,7666.8,1917.1,7803.4,1852.7z M6661.8,1115.7c136.6-92.8,208.7-244.8,195.8-414.9c-20.6-252.5-203.6-422.6-456.1-422.6c-206.1,0-345.3,95.3-427.7,288.6c-51.5,128.8-49,239.6,12.9,371.1C6107.8,1187.9,6427.3,1270.3,6661.8,1115.7z"/><path d="M1523.7,3512.1C851.1,3347.2,304.9,2795.8,134.8,2107.8c-46.4-183-46.4-667.4,0-850.3C307.4,564.3,853.7,12.8,1536.6-146.9c208.7-48.9,654.5-48.9,868.4,0c268,64.4,615.9,250,822,440.6c824.6,765.3,824.6,2012.5,0,2777.8c-206.1,190.7-554,376.2-822,440.6C2196.2,3558.5,1724.7,3558.5,1523.7,3512.1z M2147.3,3133.3c190.7-131.4,244.8-329.8,139.1-510.2c-188.1-322.1-688-180.4-688,198.4c0,188.1,180.4,368.5,368.5,368.5C2023.6,3190,2098.3,3166.9,2147.3,3133.3z M1168.1,2569c252.5-141.7,252.5-510.2,0-644.2c-250-136.6-548.9,41.2-548.9,324.7c0,134,67,250,185.5,319.5C923.3,2636,1044.4,2638.6,1168.1,2569z M3126.5,2569c252.5-141.7,252.5-510.2,0-644.2c-250-136.6-548.9,41.2-548.9,324.7c0,134,67,250,185.5,319.5C2881.7,2636,3002.8,2638.6,3126.5,2569z M2108.6,1837.2c134-131.4,41.2-373.6-141.7-373.6c-113.4,0-206.1,100.5-206.1,219s92.8,219,206.1,219C2015.8,1901.6,2070,1878.5,2108.6,1837.2z M1157.8,1448.1c177.8-85,255.1-345.3,152-517.9c-56.7-97.9-211.3-188.1-322.1-188.1c-110.8,0-265.4,90.2-322.1,188.1c-64.4,108.2-59.3,273.1,7.7,384C773.8,1476.5,980,1533.2,1157.8,1448.1z M3116.1,1448.1c177.8-85,255.1-345.3,152-517.9c-56.7-97.9-211.3-188.1-322.1-188.1c-110.8,0-265.4,90.2-322.1,188.1c-64.4,108.2-59.3,273.1,7.7,384C2732.2,1476.5,2938.3,1533.2,3116.1,1448.1z M2147.3,873.5c118.5-61.8,188.1-185.5,188.1-329.8c0-128.8-54.1-219-188.1-309.2c-221.6-152-548.9,33.5-548.9,309.2c0,211.3,162.3,378.8,368.5,378.8C2015.8,922.5,2098.3,901.9,2147.3,873.5z"/><path d="M3732,311.8C3420.2-28.4,3069.8-244.8,2618.8-384c-206.1-61.8-262.8-69.6-651.9-69.6c-389.1,0-445.8,7.7-651.9,69.6c-216.5,67-530.8,213.9-708.6,329.9L523.9,0l5.2-1930l7.7-1932.6l77.3-123.7c54.1-90.2,116-144.3,206.1-190.7l126.3-67h3326.7h3324.1l103.1,56.7c118.5,61.8,195.8,141.7,255.1,257.7c36.1,74.7,41.2,286,41.2,2004.7c0,1059.1-7.7,1919.7-18,1914.6c-12.9-2.6-97.9-51.5-195.8-105.6c-95.3-56.7-280.9-139.2-412.3-185.5C6344.9-667.4,5198.2-420.1,4402,342.7l-175.2,167.5l-157.2-2.6l-157.2-2.6L3732,311.8z M4690.6-1340l1012.7-507.6L4721.5-2363c-538.5-283.4-997.2-517.9-1017.8-523.1c-30.9-7.7-36.1,134-36.1,927.6c0,515.4-7.7,979.2-15.5,1033.3c-10.3,51.5-7.7,95.3,5.2,92.8C3670.2-832.3,4136.6-1061.7,4690.6-1340z"/><path d="M9086.6-376.2L8280.1-786v-1071.9l2.6-1072l801.4-420c440.6-229.3,806.5-412.3,811.7-409.7c5.2,5.2,5.2,860.7,2.6,1901.7L9890.6,36L9086.6-376.2z"/></g></g>
</svg>