<?xml version="1.0" encoding="utf-8"?>
<!-- Svg Vector Icons : http://www.sfont.cn -->
<!DOCTYPE svg PUBLIC "-//W3C//DTD SVG 1.1//EN" "http://www.w3.org/Graphics/SVG/1.1/DTD/svg11.dtd">
<svg version="1.1" xmlns="http://www.w3.org/2000/svg" xmlns:xlink="http://www.w3.org/1999/xlink" x="0px" y="0px" viewBox="0 0 1000 1000" enable-background="new 0 0 1000 1000" xml:space="preserve">
<metadata> Svg Vector Icons : http://www.sfont.cn </metadata>
<g><g transform="translate(0.000000,511.000000) scale(0.100000,-0.100000)"><path d="M5952.7,4988.1c-496.9-98.5-901.9-396.2-1120.8-831.8l-63.5-127l-85.4,111.7c-118.2,153.2-275.8,278-483.8,378.7c-761.8,367.7-1668-21.9-1921.9-827.4c-30.6-94.1-61.3-229.8-67.8-297.7l-13.1-124.7l-124.8-13.2c-67.9-6.6-203.6-37.2-297.7-67.8C802,2884.5,484.6,1665.3,1185.1,925.4l142.3-151l116,120.4c74.4,76.6,170.7,144.5,267.1,190.4l148.9,70h647.9H3153l166.4-81c153.2-76.6,251.7-159.8,352.4-302.1l39.4-54.7l37.2,54.7c91.9,133.5,197,225.5,350.2,302.1l166.4,81h735.5h735.5l166.4-81c153.2-76.6,256.1-164.2,350.2-302.1c37.2-52.5,39.4-52.5,63.5-13.1c72.3,116,214.5,238.6,365.6,315.2l166.4,81h645.8h647.9l148.8-70c96.3-46,192.6-113.8,267.1-190.4l116-120.4l142.3,151c788,834,267.1,2213.1-882.2,2331.2l-142.3,15.3l-2.2,199.2c-2.2,251.7-46,429-177.3,693.9c-240.8,490.3-744.3,812.1-1320,842.8C6180.3,5014.4,6044.6,5005.6,5952.7,4988.1z"/><path d="M1966.5,796.3c-186.1-46-359-214.5-389.6-383.1C1555,299.4,2146-4378.5,2196.4-4490.1c52.5-120.4,172.9-223.3,313-264.9c131.3-37.2,647.9-46,801.2-10.9c194.8,46,354.6,210.1,385.2,394c6.6,41.6-8.7,466.3-37.2,943.4l-50.4,866.8l-105.1,118.2c-56.9,65.7-133.5,181.7-172.9,260.5c-65.7,133.5-70,157.6-70,372.1c0,201.4,6.6,245.2,56.9,350.2c30.7,65.7,91.9,166.4,133.5,221.1l78.8,100.7l-43.8,774.9c-39.4,739.9-43.8,779.3-98.5,890.9c-65.7,140.1-183.9,232-337.1,264.9C2929.7,818.1,2073.8,820.3,1966.5,796.3z"/><path d="M4330.6,785.3c-170.7-52.5-306.5-199.2-345.8-369.9c-13.1-52.5,24.1-1175.5,37.2-1188.6c2.2-4.4,87.6,24.1,188.2,59.1c490.3,172.9,1090.1,172.9,1580.4,0c100.7-35,183.9-63.5,188.3-61.3c13.1,15.3,50.3,1138.3,37.2,1190.8c-39.4,175.1-190.4,328.3-369.9,376.5C5517.1,826.9,4446.7,820.3,4330.6,785.3z"/><path d="M6909.2,785.3c-140.1-46-243-135.7-299.9-262.7c-46-102.9-54.7-177.3-94.1-886.5l-43.8-774.9l78.8-100.7c41.6-54.7,102.9-155.4,133.5-221.1c50.3-105.1,56.9-148.8,56.9-350.2c0-214.5-4.4-238.6-70-372.1c-39.4-78.8-118.2-194.8-175.1-260.5l-105.1-118.2l-48.2-855.9c-28.4-470.6-43.8-897.5-37.2-945.6c17.5-137.9,113.8-271.4,251.7-348.1c113.8-63.5,129.2-65.7,459.7-72.2c271.4-6.6,370-2.2,466.3,26.3c146.6,43.8,269.2,144.5,321.8,267c50.4,111.7,641.4,4789.5,619.5,4903.3c-24.1,127-122.6,253.9-251.7,326.1L8054.1,805l-525.4,4.4C7132.5,813.8,6981.5,807.2,6909.2,785.3z"/><path d="M4103-2999.4c0-74.4,10.9-415.9,24.1-759.6c21.9-597.6,24.1-628.2,76.6-739.9c65.7-131.3,162-214.5,306.5-258.3c144.5-43.8,836.2-43.8,980.7,0c146.7,43.8,251.7,133.5,308.7,262.7c46,102.9,52.5,162,74.4,735.5c13.2,343.7,24.1,685.1,24.1,759.6v135.7l-72.2-30.6c-39.4-15.3-155.4-52.5-256.1-78.8c-162-43.8-238.6-50.4-569.1-50.4c-330.6,0-407.2,6.6-569.1,50.4c-100.7,26.3-216.7,63.5-256.1,78.8l-72.2,30.6V-2999.4z"/></g></g>
</svg>