<?xml version="1.0" encoding="utf-8"?>
<!-- Svg Vector Icons : http://www.sfont.cn -->
<!DOCTYPE svg PUBLIC "-//W3C//DTD SVG 1.1//EN" "http://www.w3.org/Graphics/SVG/1.1/DTD/svg11.dtd">
<svg version="1.1" xmlns="http://www.w3.org/2000/svg" xmlns:xlink="http://www.w3.org/1999/xlink" x="0px" y="0px" viewBox="0 0 1000 1000" enable-background="new 0 0 1000 1000" xml:space="preserve">
<metadata> Svg Vector Icons : http://www.sfont.cn </metadata>
<g><path d="M977.7,916.6L740,673.8c-3.9-4-8.4-7.1-13.3-9.1c51.1-68.5,81.4-154.1,81.4-246.8C808.1,192.6,629.5,10,409.1,10C188.7,10,10,192.6,10,417.8c0,225.2,178.7,407.8,399.1,407.8c101.2,0,193.5-38.5,263.9-101.8c1.9,3.9,4.5,7.5,7.7,10.8l237.6,242.8c16.4,16.7,43,16.7,59.5,0C994.1,960.7,994.1,933.4,977.7,916.6z M409.1,761.3C223.5,761.3,73,607.5,73,417.8C73,228.1,223.5,74.4,409.1,74.4c185.6,0,336.1,153.7,336.1,343.4C745.2,607.5,594.7,761.3,409.1,761.3z"/></g>
</svg>